<svg width="20" height="20" viewBox="0 0 20 20" fill="none" xmlns="http://www.w3.org/2000/svg">
<path fill-rule="evenodd" clip-rule="evenodd" d="M3.32958 2.66254C3.58499 2.43035 3.98028 2.44917 4.21247 2.70458L16.7125 16.4546C16.9447 16.71 16.9258 17.1053 16.6704 17.3375C16.415 17.5697 16.0197 17.5508 15.7875 17.2954L3.28754 3.54542C3.05535 3.29001 3.07417 2.89473 3.32958 2.66254Z" fill="#D1D1D6"/>
<path fill-rule="evenodd" clip-rule="evenodd" d="M8.36091 7.267C8.59308 7.52243 8.57422 7.91771 8.31879 8.14988C7.9454 8.48927 7.68344 8.9337 7.56736 9.42475C7.45128 9.91581 7.48651 10.4305 7.66841 10.9011C7.85032 11.3718 8.17039 11.7764 8.58654 12.0617C9.00269 12.3471 9.49545 12.4998 10 12.4999L10.0023 12.4999C10.623 12.5022 11.2217 12.2708 11.6794 11.8515C11.9339 11.6184 12.3292 11.6357 12.5624 11.8902C12.7956 12.1447 12.7782 12.5401 12.5237 12.7732C11.8347 13.4045 10.9332 13.7531 9.99875 13.7499C9.24228 13.7496 8.50357 13.5205 7.87966 13.0927C7.25543 12.6647 6.77533 12.0578 6.50247 11.3518C6.22961 10.6458 6.17677 9.87377 6.35089 9.13719C6.52501 8.40061 6.91794 7.73396 7.47803 7.22488C7.73346 6.99271 8.12874 7.01157 8.36091 7.267Z" fill="#D1D1D6"/>
<path fill-rule="evenodd" clip-rule="evenodd" d="M6.3392 5.07782C6.49477 5.38595 6.3711 5.76185 6.06297 5.91743C4.57742 6.66749 3.51289 7.75402 2.81656 8.66333C2.46943 9.11663 2.21729 9.52137 2.05318 9.81015C2.01306 9.88076 1.97826 9.94432 1.94869 9.99983C2.02222 10.1376 2.12787 10.3247 2.26721 10.546C2.58036 11.0434 3.06011 11.7076 3.72322 12.3707C5.04583 13.6933 7.08289 15.0001 10 15.0001H10.0051C11.3703 15.0113 12.7184 14.6967 13.9376 14.0826C14.2459 13.9273 14.6217 14.0513 14.777 14.3596C14.9322 14.6679 14.8082 15.0437 14.4999 15.1989C13.1039 15.9021 11.5605 16.2625 9.99742 16.2501C6.66595 16.2493 4.32884 14.7441 2.83934 13.2546C2.0962 12.5114 1.56033 11.7694 1.20942 11.212C1.03365 10.9329 0.903403 10.6987 0.816014 10.5318C0.772297 10.4484 0.739235 10.3816 0.716506 10.3344C0.705139 10.3108 0.696349 10.2921 0.690096 10.2786L0.682612 10.2622L0.680285 10.2571L0.679474 10.2553L0.679157 10.2546C0.679022 10.2543 0.678898 10.254 1.25003 10.0001C0.678655 9.74684 0.678745 9.74664 0.678839 9.74643L0.679581 9.74476L0.681012 9.74157L0.68539 9.73191C0.688986 9.72403 0.693939 9.71329 0.700266 9.69983C0.712918 9.67292 0.731073 9.6351 0.754859 9.58747C0.802415 9.49226 0.872582 9.35767 0.966406 9.19256C1.15386 8.86269 1.43688 8.40903 1.82413 7.90334C2.59654 6.89469 3.79764 5.66091 5.49959 4.80159C5.80772 4.64602 6.18362 4.76969 6.3392 5.07782ZM1.25003 10.0001L0.678839 9.74643C0.607255 9.90791 0.607158 10.0926 0.678898 10.254L1.25003 10.0001Z" fill="#D1D1D6"/>
<path fill-rule="evenodd" clip-rule="evenodd" d="M8.27966 3.89141C8.84837 3.79621 9.42405 3.74892 10.0007 3.75002C10.0005 3.75002 10.0009 3.75002 10.0007 3.75002L10 4.37502V3.75002C10.0002 3.75002 10.0005 3.75002 10.0007 3.75002C13.3332 3.75021 15.6709 5.25578 17.1607 6.74558C17.9039 7.48872 18.4397 8.23078 18.7907 8.7881C18.9664 9.06726 19.0967 9.30148 19.1841 9.46832C19.2278 9.55178 19.2608 9.61851 19.2836 9.66571C19.2949 9.68932 19.3037 9.70806 19.31 9.72158L19.3175 9.73792L19.3198 9.74308L19.3206 9.74489L19.3209 9.7456C19.321 9.7459 19.3212 9.74618 18.75 10C18.1789 9.74618 18.179 9.74605 18.179 9.74592L18.1743 9.75623C18.1698 9.76579 18.1625 9.78142 18.1522 9.80265C18.1316 9.84514 18.0992 9.91002 18.0546 9.99372C18.0535 9.99581 18.0523 9.99792 18.0512 10C17.9777 9.8623 17.8721 9.67527 17.7329 9.45412C17.4197 8.95676 16.94 8.29257 16.2768 7.62946C14.9542 6.30685 12.9172 5.00002 10 5.00002H9.9988C9.49196 4.99902 8.98593 5.04058 8.48604 5.12425C8.14559 5.18124 7.82341 4.95146 7.76643 4.61102C7.70944 4.27058 7.93922 3.9484 8.27966 3.89141ZM18.75 10L19.3212 10.2539C19.393 10.0923 19.393 9.90779 19.3212 9.74618L18.75 10ZM18.0512 10C17.9619 10.1673 17.8255 10.4071 17.6391 10.6921C17.2607 11.2708 16.6815 12.0284 15.8802 12.7451C15.623 12.9753 15.601 13.3704 15.8311 13.6276C16.0612 13.8849 16.4563 13.9069 16.7136 13.6768C17.6154 12.8701 18.2629 12.0222 18.6852 11.3763C18.8969 11.0526 19.0533 10.7777 19.1579 10.5813C19.2102 10.483 19.2497 10.4041 19.2768 10.3484C19.2903 10.3205 19.3007 10.2984 19.3081 10.2825L19.3169 10.2633L19.3196 10.2574L19.3205 10.2553L19.3209 10.2545C19.3209 10.2543 19.3212 10.2539 18.75 10C18.1789 10.2539 18.179 10.2541 18.1791 10.2543L18.1754 10.2462C18.1718 10.2384 18.1658 10.2256 18.1573 10.208C18.1404 10.1728 18.1136 10.1187 18.0768 10.0483C18.0687 10.033 18.0602 10.0169 18.0512 10Z" fill="#D1D1D6"/>
<path fill-rule="evenodd" clip-rule="evenodd" d="M9.97185 6.81357C10.0361 6.47443 10.3631 6.25159 10.7023 6.31585C11.5001 6.46701 12.2271 6.87358 12.7736 7.47419C13.32 8.0748 13.6563 8.83686 13.7317 9.64536C13.7637 9.98905 13.5111 10.2936 13.1674 10.3257C12.8237 10.3577 12.5191 10.105 12.4871 9.76136C12.4369 9.22292 12.2129 8.71541 11.849 8.31542C11.4851 7.91543 11.0009 7.64467 10.4696 7.544C10.1304 7.47974 9.9076 7.15272 9.97185 6.81357Z" fill="#D1D1D6"/>
</svg>
